<svg width="19" height="32" viewBox="0 0 19 32" fill="none" xmlns="http://www.w3.org/2000/svg"><path d="M18.66 18.49C18.26 9.4 10.34.62 9.99.24h-.04L9.84.1 9.72.04h-.5L9.03 0H9l-.17.11-.1.1H8.7C8.34.61.43 9.4 0 18.48v1.24c.35 9.84 9.04 12.24 9.11 12.26h.46c.08 0 8.76-2.47 9.1-12.26v-1.04l-.01-.2ZM2.39 15.13a22.23 22.23 0 0 0 6.05 3.93v4.34C6.22 22.25 2.8 20.2 1.8 18.4c.08-1.1.27-2.2.55-3.26h.03Zm1.8-4.87a11.1 11.1 0 0 0 4.25 2.92v3.77c-2.02-.9-3.86-2.2-5.43-3.82.35-.98.74-1.94 1.19-2.87Zm11.5 2.87a17.3 17.3 0 0 1-5.43 3.82v-3.77c1.6-.62 3.03-1.62 4.2-2.92.46.92.87 1.86 1.22 2.83v.04Zm-5.43-1.97V3.52a43.23 43.23 0 0 1 3.3 4.94 8.28 8.28 0 0 1-3.32 2.66l.02.04Zm0 12.26v-4.36c2.21-.95 4.26-2.27 6.07-3.9.28 1.06.46 2.15.53 3.26-1 1.77-4.4 3.82-6.62 4.97l.02.03Zm-1.8-12.26a8.2 8.2 0 0 1-3.32-2.7 43.26 43.26 0 0 1 3.3-5l.01 7.7ZM2 21.4a30.16 30.16 0 0 0 6.44 4.1v4.2c-1.65-.7-3.1-1.84-4.22-3.29A11.52 11.52 0 0 1 2 21.41Zm8.24 8.3V25.5a29.67 29.67 0 0 0 6.44-4.1 11.37 11.37 0 0 1-2.2 5.04 10.53 10.53 0 0 1-4.24 3.28Z" fill="#2D3440"/></svg>